<svg width="35" height="37" viewBox="0 0 35 37" fill="none" xmlns="http://www.w3.org/2000/svg">
<path d="M1.48936 19.392L5.33898 16.2641C6.2311 15.5395 7.54236 15.6747 8.26751 16.5659C8.993 17.4574 8.8577 18.7678 7.96558 19.4925L6.10262 21.0062L19.6286 32.3957C20.5207 33.1203 20.656 34.4308 19.9305 35.322C19.5192 35.828 18.9191 36.0902 18.3143 36.0902C17.8529 36.0902 17.3881 35.9377 17.0023 35.624L1.48936 22.6204C1.00343 22.2253 0.720947 21.6325 0.720947 21.0062C0.720947 20.3799 1.00343 19.7874 1.48936 19.392V19.392Z" fill="white"/>
<path d="M18.5838 0.280057C19.6889 0.288911 20.578 1.19136 20.5691 2.29608L20.3971 34.1059C20.3882 35.2106 19.4848 36.0988 18.3797 36.0899C18.0996 36.0879 17.8338 36.0283 17.5926 35.9227C16.8821 35.6111 16.3876 34.899 16.3941 34.0739L16.5665 2.2644C16.5754 1.15968 17.4784 0.271203 18.5838 0.280057V0.280057Z" fill="white"/>
<path d="M27.369 22.1613L28.7907 21.0062L23.727 16.8914C22.8348 16.1667 22.6999 14.8563 23.425 13.9651C24.1502 13.0732 25.4615 12.9384 26.3536 13.6631L33.4036 19.392C33.8899 19.7874 34.1721 20.3799 34.1721 21.0062C34.1721 21.6325 33.8899 22.2253 33.4036 22.6204L29.9957 25.3897C29.6096 25.7033 29.1451 25.8559 28.6837 25.8559C28.0785 25.8559 27.4784 25.5936 27.0671 25.0879C26.342 24.1964 26.4773 22.8863 27.369 22.1613Z" fill="#7B4AE2"/>
</svg>
