<svg width="656" height="651" viewBox="0 0 656 651" fill="none" xmlns="http://www.w3.org/2000/svg">
<path d="M565.667 310.713C565.667 168.408 450.231 53.0464 307.834 53.0464C165.436 53.0464 50 168.408 50 310.713C50 453.018 165.436 568.379 307.834 568.379C450.231 568.379 565.667 453.018 565.667 310.713Z" fill="#7B4AE2" fill-opacity="0.2"/>
<g filter="url(#filter0_d_108_568)">
<circle cx="570.143" cy="332.11" r="35.8102" fill="#090E16"/>
</g>
<g clip-path="url(#clip0_108_568)">
<path fill-rule="evenodd" clip-rule="evenodd" d="M585.013 314H554.798C553.253 314 552 315.253 552 316.798V347.013C552 348.558 553.253 349.81 554.798 349.81H585.013C586.558 349.81 587.81 348.558 587.81 347.013V316.798C587.81 315.253 586.558 314 585.013 314ZM573.055 345.907V342.043C573.756 342.631 574.517 343.071 575.339 343.365C576.161 343.659 576.99 343.806 577.828 343.806C578.319 343.806 578.748 343.762 579.115 343.673C579.481 343.585 579.788 343.462 580.033 343.305C580.279 343.148 580.462 342.963 580.583 342.75C580.704 342.536 580.764 342.305 580.764 342.055C580.764 341.717 580.668 341.415 580.474 341.15C580.281 340.884 580.017 340.639 579.683 340.413C579.349 340.188 578.952 339.971 578.493 339.761C578.033 339.552 577.538 339.339 577.006 339.121C575.653 338.558 574.644 337.87 573.98 337.057C573.315 336.244 572.983 335.262 572.983 334.111C572.983 333.209 573.164 332.435 573.526 331.787C573.889 331.139 574.382 330.606 575.007 330.187C575.631 329.768 576.354 329.461 577.176 329.263C577.997 329.066 578.867 328.968 579.786 328.968C580.688 328.968 581.487 329.022 582.184 329.131C582.881 329.239 583.523 329.406 584.111 329.632V333.242C583.821 333.04 583.505 332.863 583.163 332.71C582.82 332.557 582.468 332.431 582.106 332.33C581.743 332.229 581.383 332.155 581.024 332.107C580.666 332.058 580.325 332.034 580.003 332.034C579.56 332.034 579.157 332.076 578.795 332.161C578.432 332.246 578.126 332.364 577.876 332.517C577.627 332.67 577.433 332.853 577.296 333.067C577.159 333.28 577.091 333.519 577.091 333.785C577.091 334.075 577.167 334.334 577.32 334.564C577.474 334.793 577.691 335.01 577.973 335.216C578.255 335.421 578.597 335.622 579 335.819C579.403 336.017 579.858 336.22 580.365 336.429C581.058 336.719 581.681 337.027 582.233 337.353C582.784 337.679 583.258 338.047 583.652 338.457C584.047 338.868 584.349 339.337 584.558 339.864C584.768 340.391 584.873 341.005 584.873 341.705C584.873 342.671 584.689 343.482 584.323 344.138C583.956 344.794 583.459 345.325 582.831 345.732C582.202 346.138 581.471 346.43 580.637 346.607C579.804 346.784 578.924 346.873 577.997 346.873C577.047 346.873 576.142 346.792 575.284 346.631C574.427 346.47 573.683 346.229 573.055 345.907ZM571.584 332.429H566.615V346.593H562.679V332.429H557.735V329.247H571.584V332.429Z" fill="#7B4AE2" fill-opacity="0.5"/>
</g>
<g filter="url(#filter1_d_108_568)">
<circle cx="85.8102" cy="240.794" r="35.8102" fill="#090E16"/>
</g>
<path d="M99.2073 234.496C98.7898 234.352 98.3571 234.216 97.9116 234.088C97.9849 233.789 98.0521 233.494 98.1118 233.204C99.0926 228.443 98.4513 224.608 96.2616 223.345C94.1619 222.134 90.7279 223.396 87.2599 226.415C86.9264 226.705 86.5919 227.012 86.2577 227.334C86.0349 227.121 85.8125 226.915 85.5907 226.718C81.9561 223.491 78.3129 222.131 76.1253 223.397C74.0276 224.612 73.4064 228.217 74.2892 232.729C74.3745 233.165 74.4741 233.61 74.5868 234.063C74.0712 234.209 73.5734 234.365 73.0972 234.531C68.8359 236.017 66.1145 238.345 66.1145 240.76C66.1145 243.255 69.036 245.757 73.4744 247.274C73.8246 247.393 74.1881 247.507 74.5626 247.614C74.441 248.103 74.3353 248.583 74.2465 249.051C73.4047 253.484 74.0621 257.005 76.1542 258.211C78.3152 259.458 81.9419 258.177 85.4734 255.09C85.7525 254.846 86.0326 254.587 86.3132 254.316C86.677 254.666 87.0401 254.997 87.4014 255.308C90.822 258.252 94.2005 259.441 96.2906 258.231C98.4495 256.981 99.1511 253.199 98.2402 248.598C98.1706 248.246 98.0897 247.887 97.9988 247.522C98.2534 247.447 98.5035 247.369 98.7473 247.288C103.361 245.759 106.364 243.288 106.364 240.76C106.364 238.336 103.554 235.992 99.2073 234.496ZM98.2065 245.656C97.9864 245.729 97.7606 245.799 97.5305 245.868C97.0211 244.255 96.3336 242.54 95.4923 240.769C96.2952 239.039 96.9561 237.346 97.4512 235.744C97.8629 235.863 98.2625 235.989 98.6476 236.122C102.372 237.404 104.644 239.3 104.644 240.76C104.644 242.316 102.191 244.336 98.2065 245.656ZM96.5534 248.932C96.9562 250.966 97.0137 252.806 96.7469 254.244C96.5072 255.536 96.0251 256.398 95.4291 256.743C94.1606 257.477 91.4481 256.522 88.5227 254.005C88.1874 253.716 87.8496 253.408 87.5107 253.082C88.6448 251.842 89.7782 250.4 90.8845 248.798C92.8302 248.626 94.6685 248.344 96.3356 247.958C96.4177 248.289 96.4906 248.614 96.5534 248.932ZM79.8363 256.616C78.597 257.053 77.61 257.066 77.0134 256.722C75.7438 255.99 75.216 253.163 75.9359 249.371C76.0184 248.937 76.1165 248.491 76.2297 248.035C77.8785 248.4 79.7033 248.662 81.6537 248.82C82.7674 250.387 83.9336 251.828 85.1088 253.089C84.852 253.337 84.5963 253.573 84.3419 253.795C82.7803 255.16 81.2154 256.129 79.8363 256.616ZM74.0305 245.647C72.0679 244.976 70.4471 244.104 69.3361 243.153C68.3379 242.298 67.8339 241.449 67.8339 240.76C67.8339 239.295 70.0189 237.425 73.6631 236.155C74.1053 236.001 74.5682 235.855 75.0486 235.719C75.5522 237.357 76.2129 239.07 77.0102 240.802C76.2026 242.56 75.5325 244.3 75.0239 245.958C74.6815 245.859 74.3497 245.756 74.0305 245.647ZM75.9766 232.399C75.2202 228.533 75.7226 225.617 76.9867 224.886C78.3332 224.106 81.3108 225.217 84.449 228.004C84.6496 228.182 84.851 228.369 85.053 228.561C83.8836 229.817 82.728 231.247 81.6242 232.804C79.7313 232.98 77.9193 233.262 76.2533 233.639C76.1486 233.218 76.0558 232.804 75.9766 232.399ZM93.3382 236.686C92.94 235.998 92.5311 235.327 92.1143 234.673C93.3985 234.836 94.6289 235.051 95.7843 235.315C95.4375 236.427 95.0051 237.589 94.4961 238.781C94.131 238.087 93.7449 237.389 93.3382 236.686ZM86.2582 229.79C87.0513 230.649 87.8455 231.609 88.6267 232.65C87.8395 232.612 87.0426 232.593 86.239 232.593C85.4431 232.593 84.652 232.612 83.8697 232.648C84.6516 231.617 85.4527 230.659 86.2582 229.79ZM79.1329 236.698C78.735 237.388 78.356 238.083 77.9967 238.779C77.496 237.592 77.0676 236.424 76.7177 235.297C77.8661 235.04 79.0907 234.83 80.3667 234.67C79.944 235.33 79.5318 236.006 79.1329 236.698V236.698ZM80.4034 246.973C79.0851 246.826 77.8421 246.627 76.694 246.377C77.0495 245.229 77.4873 244.036 77.9986 242.823C78.3589 243.519 78.7394 244.215 79.1397 244.906H79.1397C79.5474 245.61 79.9699 246.3 80.4034 246.973ZM86.3058 251.852C85.4909 250.972 84.678 250 83.8841 248.953C84.6548 248.984 85.4405 248.999 86.239 248.999C87.0594 248.999 87.8704 248.981 88.6686 248.945C87.8849 250.01 87.0935 250.984 86.3058 251.852ZM94.5125 242.761C95.0505 243.988 95.504 245.174 95.8641 246.302C94.6971 246.568 93.4371 246.783 92.1096 246.942C92.5274 246.28 92.9398 245.597 93.3451 244.894C93.7551 244.183 94.1444 243.471 94.5125 242.761ZM91.8557 244.035C91.2266 245.126 90.5806 246.167 89.9249 247.15C88.7305 247.236 87.4966 247.28 86.239 247.28C84.9865 247.28 83.7681 247.241 82.5949 247.165C81.9127 246.169 81.2528 245.124 80.6276 244.044H80.6277C80.0042 242.968 79.4304 241.881 78.9104 240.802C79.4302 239.719 80.0026 238.632 80.6225 237.557L80.6224 237.557C81.2439 236.479 81.8981 235.44 82.574 234.45C83.771 234.36 84.9985 234.312 86.239 234.312H86.239C87.4851 234.312 88.7141 234.36 89.9108 234.451C90.5763 235.434 91.2261 236.47 91.8501 237.548C92.4812 238.638 93.0609 239.718 93.5852 240.777C93.0625 241.855 92.4841 242.945 91.8557 244.035ZM95.4027 224.834C96.7505 225.612 97.2747 228.746 96.4278 232.857C96.3738 233.119 96.313 233.386 96.2469 233.657C94.5771 233.272 92.7638 232.985 90.8654 232.807C89.7594 231.232 88.6133 229.8 87.463 228.561C87.7723 228.263 88.0811 227.979 88.3887 227.712C91.3601 225.126 94.1374 224.105 95.4027 224.834ZM86.239 237.166C88.224 237.166 89.8331 238.775 89.8331 240.76C89.8331 242.745 88.224 244.354 86.239 244.354C84.2541 244.354 82.6449 242.745 82.6449 240.76C82.6449 238.775 84.2541 237.166 86.239 237.166Z" fill="#7B4AE2" fill-opacity="0.5"/>
<g filter="url(#filter2_d_108_568)">
<circle cx="85.8102" cy="469.98" r="35.8102" fill="#090E16"/>
</g>
<g clip-path="url(#clip1_108_568)">
<path fill-rule="evenodd" clip-rule="evenodd" d="M79.9833 452C76.6887 452 74.0149 454.674 74.0149 457.968C74.0149 461.263 76.6887 463.937 79.9833 463.937C76.6887 463.937 74.0149 466.611 74.0149 469.905C74.0149 473.2 76.6887 475.873 79.9833 475.873C76.6887 475.873 74.0149 478.547 74.0149 481.842C74.0149 485.136 76.6887 487.81 79.9833 487.81C83.2778 487.81 85.9516 485.136 85.9516 481.842L85.9516 469.905C85.9516 473.2 88.6255 475.873 91.92 475.873C95.2145 475.873 97.8884 473.2 97.8884 469.905C97.8884 466.611 95.2145 463.937 91.92 463.937C95.2145 463.937 97.8884 461.263 97.8884 457.968C97.8884 454.674 95.2145 452 91.92 452H79.9833ZM91.92 463.937H85.9516L85.9516 469.905C85.9516 466.611 88.6255 463.937 91.92 463.937Z" fill="#7B4AE2" fill-opacity="0.5"/>
</g>
<g filter="url(#filter3_f_108_568)">
<circle cx="308.148" cy="305.148" r="255.148" fill="#7B4AE2" fill-opacity="0.2"/>
</g>
<g filter="url(#filter4_i_108_568)">
<path fill-rule="evenodd" clip-rule="evenodd" d="M262.635 405.465C299.391 425.056 340.608 422.88 372.901 405.463V448.383L373.266 448.373V473.573H262.635V405.465Z" fill="#BB7D52"/>
<path fill-rule="evenodd" clip-rule="evenodd" d="M262.635 441.226C299.39 460.819 340.607 458.642 372.901 441.226V468.595L397.734 467.977L398.042 467.988C398.042 533.959 240.326 543.834 240.326 467.889L240.942 467.861L262.635 467.972V441.226V441.226Z" fill="#D08B5B"/>
<path fill-rule="evenodd" clip-rule="evenodd" d="M198.067 170.098C285.781 114.249 397.996 134.109 435.909 170.937C446.87 197.314 447.645 222.755 444.42 250.065C451.825 244.751 460.631 245.967 467.569 250.916C470.379 273.577 477.909 318.405 444.169 320.35C432.553 464.956 219.72 482.955 190.95 320.823C157.51 319.669 166.527 274.364 168.616 252.608C176.639 246.504 185.8 249.576 191.487 252.307L198.067 170.098V170.098Z" fill="#EFA471"/>
<path fill-rule="evenodd" clip-rule="evenodd" d="M184.662 231.843C185.123 233.109 183.626 234.375 179.134 236.677C169.839 241.32 169.024 242.285 169 249.558V249.909C169 259.69 170.497 262.22 176.946 263.142C183.511 264.062 187.657 265.557 188.809 267.399C189.269 268.204 189.73 271.887 189.73 275.684C189.73 283.854 192.263 295.361 195.373 301.344C204.126 318.374 226.927 327.005 254.566 323.783C268.156 322.056 276.103 319.41 284.74 313.656C297.639 305.026 303.627 293.98 304.548 276.605C305.239 266.018 305.239 266.018 308.694 264.867C313.186 263.257 324.357 263.257 328.964 264.867C332.533 266.133 332.533 266.133 332.533 274.303C332.533 283.738 334.952 295.016 338.176 301.345C346.928 318.374 369.731 327.005 397.255 323.783C410.96 322.057 418.906 319.41 427.544 313.657C440.441 305.028 446.43 293.635 447.582 275.8C448.388 264.062 447.813 264.638 460.48 263.027C466.929 262.222 468.427 259.69 468.427 249.794C468.427 241.969 467.159 240.474 456.45 235.871L449.999 233.109L439.98 230.004L432.61 228.392C428.58 227.587 423.397 226.896 421.209 226.78C418.906 226.78 413.148 224.709 407.39 221.833C397.83 217.115 397.37 217 386.084 217C373.186 217 364.088 219.647 356.717 225.401C354.529 227.126 349.922 229.312 346.698 230.118C343.358 230.924 337.139 233.11 332.878 234.951C321.708 239.669 315.949 239.439 301.669 233.685C295.451 231.154 289.577 229.082 288.771 229.082C287.964 229.082 285.316 227.472 282.898 225.516C275.297 219.532 266.774 217 253.645 217C242.475 217 241.784 217.23 231.88 221.948C225.2 225.17 220.018 226.78 216.908 226.78C214.374 226.896 208.846 227.587 204.7 228.508L184.662 231.843V231.843ZM276.793 246.687C290.612 251.175 294.873 257.273 294.988 272.692C295.103 280.863 294.644 283.51 292.455 287.996C284.855 303.53 263.204 312.276 237.522 310.32C217.829 308.709 207.695 303.186 202.282 290.988C198.827 283.049 198.367 264.062 201.59 258.194C204.585 252.67 210.344 248.874 219.786 246.342C227.158 244.386 231.188 244.156 249.614 244.386C265.507 244.731 272.417 245.306 276.793 246.687V246.687ZM419.596 246.687C433.416 251.175 437.677 257.273 437.792 272.692C437.908 280.863 437.446 283.51 435.258 287.996C427.657 303.53 406.006 312.276 380.325 310.32C360.632 308.709 350.497 303.186 345.085 290.988C341.629 283.049 341.17 264.062 344.394 258.194C347.388 252.67 353.146 248.874 362.589 246.342C369.961 244.386 373.991 244.156 392.417 244.386C408.31 244.731 415.219 245.306 419.596 246.687V246.687Z" fill="#A66F49"/>
<path fill-rule="evenodd" clip-rule="evenodd" d="M288.225 57.6225L280.97 62.3407L277.284 58.7733C271.526 53.1353 268.762 54.1709 264.386 63.4914C261.737 69.2445 258.398 69.9354 252.64 66.1377C250.336 64.527 247.457 63.146 246.306 63.146C243.772 63.146 241.353 67.0582 240.317 72.2362C239.511 76.4938 236.747 80.406 234.444 80.406C233.638 80.406 230.643 79.3704 227.765 78.1045C223.388 76.1484 222.006 76.0333 219.588 77.0689C216.824 78.3348 216.593 79.025 216.593 86.6197C216.593 92.1432 215.787 96.4008 214.29 99.6227C212.102 104.455 211.987 104.571 206.574 104.571C197.591 104.571 193.33 109.058 197.706 114.006C200.01 116.422 198.512 118.954 194.021 119.99C185.729 122.061 183.311 127.354 187.802 132.992C190.912 137.019 190.797 137.595 185.844 139.897C180.662 142.428 179.856 145.305 183.196 148.872C185.729 151.634 185.729 151.748 184.347 166.938C182.966 181.666 183.426 222.746 185.039 227.003C185.499 228.269 184.002 229.535 179.511 231.836C170.067 236.554 169.376 237.474 169.376 245.069C169.376 254.85 170.874 257.381 177.323 258.302C183.887 259.222 188.033 260.718 189.185 262.559C189.645 263.365 190.106 267.047 190.106 270.844C190.106 279.014 192.64 290.521 195.749 296.504C204.501 313.535 227.304 322.164 254.944 318.943C268.533 317.217 276.479 314.57 285.116 308.817C298.015 300.187 304.003 289.14 304.925 271.765C305.616 261.178 305.616 261.178 309.071 260.028C313.562 258.417 324.733 258.417 329.339 260.028C332.91 261.294 332.91 261.294 332.91 269.464C332.91 278.9 335.328 290.176 338.553 296.505C347.305 313.535 370.107 322.165 397.631 318.944C411.336 317.217 419.282 314.571 427.92 308.818C440.818 300.188 446.807 288.796 447.958 270.96C448.764 259.223 448.189 259.799 460.857 258.187C467.306 257.382 468.803 254.85 468.803 244.955C468.803 237.13 467.536 235.634 456.826 231.032L450.377 228.27V216.763C450.261 197.086 447.497 183.163 442.66 178.675C441.048 177.18 437.478 174.878 434.599 173.497C430.108 171.311 429.187 171.196 427.805 172.692C426.423 174.073 426.768 175.339 430.223 182.243C434.484 190.758 438.284 205.141 439.551 217.569L440.357 225.164L432.987 223.552C428.956 222.747 423.774 222.057 421.585 221.942C419.282 221.942 413.524 219.87 407.766 216.994C398.207 212.276 397.747 212.16 386.461 212.16C373.562 212.16 364.464 214.807 357.094 220.56C354.905 222.287 350.299 224.473 347.075 225.279C343.735 226.084 337.516 228.27 333.255 230.111C322.084 234.829 316.326 234.599 302.045 228.845C295.827 226.314 289.953 224.243 289.147 224.243C288.341 224.243 285.692 222.632 283.274 220.676C275.673 214.692 267.151 212.16 254.022 212.16C242.851 212.16 242.16 212.391 232.256 217.108C225.576 220.33 220.394 221.942 217.284 221.942C214.751 222.057 209.223 222.747 205.078 223.667C193.331 226.199 194.252 227.695 195.173 208.363C195.864 191.794 198.052 177.756 200.586 172.922C203.465 167.514 226.267 155.892 248.84 148.298C276.825 138.977 308.264 135.41 343.735 137.827C374.138 139.783 382.2 142.314 415.828 160.38C427.574 166.709 438.515 171.772 441.048 172.117C445.194 172.692 445.539 172.462 446.806 169.009C449.571 161.07 447.382 141.048 442.776 131.958C439.321 125.284 439.091 122.752 441.048 115.848C442.43 111.015 442.43 109.98 440.703 107.448C439.091 105.032 437.939 104.572 433.333 104.572C430.338 104.687 425.732 105.147 423.083 105.607C418.361 106.528 418.246 106.528 418.822 103.536C421.125 92.2596 418.361 89.7278 407.19 92.6044C403.62 93.5249 400.28 94.1006 400.05 93.7551C399.705 93.4104 400.05 89.9581 400.856 86.1611C402.237 79.9474 402.123 78.9118 400.51 77.1853C398.783 75.5747 397.747 75.5747 391.067 76.8406C380.357 79.0269 376.326 77.9913 372.41 72.0073C368.38 66.139 364.694 64.0678 360.894 65.5633C358.821 66.3686 356.633 66.0239 352.487 64.1829C348.11 62.342 345.577 61.8814 341.662 62.4565C337.631 63.1473 335.443 62.6867 331.642 60.7307C327.727 58.7746 325.539 58.4292 320.817 59.0042C315.75 59.5799 313.907 59.1193 308.034 56.2428C304.349 54.4018 299.973 52.9057 298.36 52.7905C296.748 52.7905 292.256 54.9769 288.226 57.6238L288.225 57.6225V57.6225ZM277.169 241.847C290.989 246.335 295.25 252.434 295.365 267.853C295.48 276.022 295.02 278.669 292.832 283.157C285.231 298.691 263.58 307.436 237.898 305.48C218.206 303.869 208.071 298.346 202.659 286.148C199.204 278.209 198.743 259.222 201.967 253.354C204.962 247.831 210.72 244.034 220.163 241.502C227.534 239.546 231.565 239.315 249.991 239.546C265.883 239.891 272.793 240.466 277.169 241.847V241.847ZM419.972 241.847C433.792 246.335 438.053 252.434 438.168 267.853C438.283 276.022 437.823 278.669 435.635 283.157C428.034 298.691 406.383 307.436 380.701 305.48C361.009 303.869 350.874 298.346 345.462 286.148C342.007 278.209 341.546 259.222 344.77 253.354C347.765 247.831 353.523 244.034 362.966 241.502C370.337 239.546 374.368 239.315 392.794 239.546C408.686 239.891 415.596 240.466 419.972 241.847V241.847Z" fill="#2C1B18"/>
<path fill-rule="evenodd" clip-rule="evenodd" d="M240.087 255.771C233.983 258.647 226.957 265.897 226.957 269.349C226.957 271.995 228.8 271.995 232.37 269.119C241.698 261.754 261.507 261.754 271.641 269.003C273.599 270.269 275.672 271.419 276.363 271.419C278.781 271.419 277.63 267.277 273.945 262.904C269.108 256.921 260.471 253.009 252.294 253.009C248.033 253.009 244.002 253.929 240.087 255.77V255.771V255.771Z" fill="#533824"/>
<path fill-rule="evenodd" clip-rule="evenodd" d="M374.129 255.762C368.026 258.639 361 265.888 361 269.34C361 271.986 362.843 271.986 366.413 269.11C375.741 261.745 395.55 261.745 405.684 268.995C407.641 270.261 409.715 271.411 410.406 271.411C412.824 271.411 411.673 267.268 407.987 262.896C403.151 256.912 394.513 253 386.336 253C382.075 253 378.045 253.92 374.129 255.761L374.129 255.762V255.762Z" fill="#533824"/>
<path fill-rule="evenodd" clip-rule="evenodd" d="M292.256 310.773C293.523 315.721 297.208 319.634 303.657 322.741C308.84 325.272 311.488 325.848 319.089 325.848C326.689 325.848 329.339 325.272 334.521 322.741C340.97 319.634 344.655 315.722 345.922 310.773L346.498 308.242H319.089H291.68L292.256 310.773V310.773Z" fill="#AF754C"/>
<path fill-rule="evenodd" clip-rule="evenodd" d="M185.039 227.003C185.499 228.269 184.002 229.535 179.511 231.836C170.215 236.479 169.4 237.446 169.376 244.718V245.07C169.376 254.85 170.874 257.381 177.322 258.302C183.887 259.222 188.034 260.718 189.186 262.559C189.645 263.365 190.107 267.047 190.107 270.844C190.107 279.014 192.64 290.522 195.75 296.504C204.502 313.535 227.304 322.164 254.943 318.943C268.532 317.216 276.479 314.57 285.116 308.817C298.015 300.187 304.003 289.141 304.924 271.765C305.615 261.178 305.616 261.178 309.071 260.028C313.562 258.418 324.733 258.418 329.34 260.028C332.909 261.293 332.909 261.293 332.909 269.464C332.909 278.899 335.328 290.176 338.552 296.506C347.305 313.535 370.107 322.164 397.631 318.943C411.336 317.217 419.282 314.57 427.92 308.818C440.818 300.188 446.807 288.796 447.958 270.96C448.764 259.222 448.189 259.799 460.857 258.187C467.305 257.382 468.803 254.85 468.803 244.954C468.803 237.13 467.536 235.635 456.826 231.032L450.376 228.269L440.357 225.164L432.987 223.552C428.956 222.747 423.774 222.056 421.585 221.941C419.282 221.941 413.525 219.87 407.766 216.994C398.207 212.276 397.747 212.16 386.461 212.16C373.563 212.16 364.464 214.807 357.093 220.561C354.905 222.286 350.299 224.473 347.074 225.278C343.734 226.084 337.516 228.27 333.255 230.111C322.084 234.829 316.326 234.599 302.046 228.845C295.827 226.315 289.953 224.242 289.148 224.242C288.34 224.242 285.692 222.632 283.274 220.676C275.673 214.692 267.151 212.16 254.022 212.16C242.851 212.16 242.161 212.391 232.257 217.109C225.577 220.331 220.394 221.941 217.284 221.941C214.75 222.056 209.223 222.747 205.077 223.667L185.039 227.003V227.003ZM277.17 241.848C290.988 246.336 295.249 252.434 295.365 267.853C295.48 276.023 295.02 278.67 292.832 283.156C285.232 298.691 263.58 307.437 237.898 305.479C218.206 303.869 208.071 298.346 202.659 286.149C199.204 278.209 198.743 259.222 201.967 253.354C204.962 247.83 210.72 244.034 220.163 241.502C227.534 239.546 231.565 239.316 249.991 239.546C265.883 239.89 272.793 240.467 277.17 241.848V241.848ZM419.972 241.848C433.793 246.336 438.053 252.434 438.169 267.853C438.284 276.023 437.823 278.67 435.635 283.156C428.034 298.691 406.383 307.437 380.701 305.479C361.009 303.869 350.874 298.346 345.461 286.149C342.006 278.209 341.546 259.222 344.77 253.354C347.765 247.83 353.523 244.034 362.966 241.502C370.337 239.546 374.367 239.316 392.793 239.546C408.686 239.89 415.596 240.467 419.972 241.848V241.848Z" fill="#090E16"/>
<path fill-rule="evenodd" clip-rule="evenodd" d="M286.958 357.03C288.455 366.581 295.711 376.362 304.694 380.965C311.258 384.417 323.35 385.107 330.26 382.461C340.625 378.434 349.608 367.617 351.22 357.03H286.958V357.03Z" fill="#3E291B"/>
<path fill-rule="evenodd" clip-rule="evenodd" d="M239.625 467.93C205.652 471.236 174.789 483.889 149.107 504.977C127.008 523.046 120.843 537.407 104.663 557.86C137.629 592.033 181.958 620.988 230.298 636.98C262.543 647.58 284.54 651 319.089 651C353.639 651 375.634 647.58 407.881 636.98C456.649 621.396 497.728 595.859 534.759 559.205C509.396 526.495 498.957 505.057 458.091 484.914C440.932 476.365 420.778 470.21 405.346 468.614L398.079 467.959L397.733 467.952L396.939 473.402C393.485 499.392 360.895 518.542 320.241 518.542C279.589 518.542 247.573 499.619 243.426 473.288C242.621 468.045 242.274 467.588 239.626 467.93H239.625V467.93Z" fill="#090E16"/>
<path fill-rule="evenodd" clip-rule="evenodd" d="M260.655 421.593L260.175 421.443C258.861 421.03 265.312 418.087 267.597 416.994C274.316 413.784 283.079 414.44 294.034 419.037C298.262 420.282 304.378 423.618 309.296 425.312C320.131 429.14 325.666 426.943 335.441 422.759L343.985 419.037C354.94 414.44 363.702 413.784 370.422 416.994C372.674 418.057 374.899 419.438 376.593 420.913L377.103 421.357C357.495 436.301 294.643 443.731 260.655 421.593V421.593Z" fill="#2C1B18" fill-opacity="0.501961"/>
<path d="M386.489 561.392L390.339 558.264C391.231 557.539 392.542 557.675 393.268 558.566C393.993 559.457 393.858 560.768 392.966 561.492L391.103 563.006L404.629 574.396C405.521 575.12 405.656 576.431 404.93 577.322C404.519 577.828 403.919 578.09 403.314 578.09C402.853 578.09 402.388 577.938 402.002 577.624L386.489 564.62C386.003 564.225 385.721 563.632 385.721 563.006C385.721 562.38 386.003 561.787 386.489 561.392V561.392Z" fill="white"/>
<path d="M403.584 542.28C404.689 542.289 405.578 543.191 405.569 544.296L405.397 576.106C405.388 577.211 404.485 578.099 403.38 578.09C403.1 578.088 402.834 578.028 402.593 577.923C401.882 577.611 401.388 576.899 401.394 576.074L401.567 544.264C401.575 543.16 402.478 542.271 403.584 542.28V542.28Z" fill="white"/>
<path d="M412.369 564.161L413.791 563.006L408.727 558.891C407.835 558.167 407.7 556.856 408.425 555.965C409.15 555.073 410.461 554.938 411.354 555.663L418.404 561.392C418.89 561.787 419.172 562.38 419.172 563.006C419.172 563.632 418.89 564.225 418.404 564.62L414.996 567.39C414.61 567.703 414.145 567.856 413.684 567.856C413.079 567.856 412.478 567.594 412.067 567.088C411.342 566.196 411.477 564.886 412.369 564.161Z" fill="#7B4AE2"/>
</g>
<g filter="url(#filter5_d_108_568)">
<circle cx="505.81" cy="134.81" r="35.8102" fill="#090E16"/>
</g>
<path d="M489 121L506.062 149.875L523.125 121H510L506.062 127.957L502.125 121H489ZM493.594 123.625H498.544L506.062 136.75L513.581 123.625H518.531L506.062 144.756L493.594 123.625Z" fill="#7B4AE2" fill-opacity="0.5"/>
<defs>
<filter id="filter0_d_108_568" x="484.333" y="250.3" width="171.62" height="171.62" filterUnits="userSpaceOnUse" color-interpolation-filters="sRGB">
<feFlood flood-opacity="0" result="BackgroundImageFix"/>
<feColorMatrix in="SourceAlpha" type="matrix" values="0 0 0 0 0 0 0 0 0 0 0 0 0 0 0 0 0 0 127 0" result="hardAlpha"/>
<feOffset dy="4"/>
<feGaussianBlur stdDeviation="25"/>
<feComposite in2="hardAlpha" operator="out"/>
<feColorMatrix type="matrix" values="0 0 0 0 0 0 0 0 0 0 0 0 0 0 0 0 0 0 0.5 0"/>
<feBlend mode="normal" in2="BackgroundImageFix" result="effect1_dropShadow_108_568"/>
<feBlend mode="normal" in="SourceGraphic" in2="effect1_dropShadow_108_568" result="shape"/>
</filter>
<filter id="filter1_d_108_568" x="0" y="158.984" width="171.62" height="171.62" filterUnits="userSpaceOnUse" color-interpolation-filters="sRGB">
<feFlood flood-opacity="0" result="BackgroundImageFix"/>
<feColorMatrix in="SourceAlpha" type="matrix" values="0 0 0 0 0 0 0 0 0 0 0 0 0 0 0 0 0 0 127 0" result="hardAlpha"/>
<feOffset dy="4"/>
<feGaussianBlur stdDeviation="25"/>
<feComposite in2="hardAlpha" operator="out"/>
<feColorMatrix type="matrix" values="0 0 0 0 0 0 0 0 0 0 0 0 0 0 0 0 0 0 0.5 0"/>
<feBlend mode="normal" in2="BackgroundImageFix" result="effect1_dropShadow_108_568"/>
<feBlend mode="normal" in="SourceGraphic" in2="effect1_dropShadow_108_568" result="shape"/>
</filter>
<filter id="filter2_d_108_568" x="0" y="388.169" width="171.62" height="171.62" filterUnits="userSpaceOnUse" color-interpolation-filters="sRGB">
<feFlood flood-opacity="0" result="BackgroundImageFix"/>
<feColorMatrix in="SourceAlpha" type="matrix" values="0 0 0 0 0 0 0 0 0 0 0 0 0 0 0 0 0 0 127 0" result="hardAlpha"/>
<feOffset dy="4"/>
<feGaussianBlur stdDeviation="25"/>
<feComposite in2="hardAlpha" operator="out"/>
<feColorMatrix type="matrix" values="0 0 0 0 0 0 0 0 0 0 0 0 0 0 0 0 0 0 0.5 0"/>
<feBlend mode="normal" in2="BackgroundImageFix" result="effect1_dropShadow_108_568"/>
<feBlend mode="normal" in="SourceGraphic" in2="effect1_dropShadow_108_568" result="shape"/>
</filter>
<filter id="filter3_f_108_568" x="3" y="0" width="610.296" height="610.296" filterUnits="userSpaceOnUse" color-interpolation-filters="sRGB">
<feFlood flood-opacity="0" result="BackgroundImageFix"/>
<feBlend mode="normal" in="SourceGraphic" in2="BackgroundImageFix" result="shape"/>
<feGaussianBlur stdDeviation="25" result="effect1_foregroundBlur_108_568"/>
</filter>
<filter id="filter4_i_108_568" x="104.663" y="52.7905" width="430.095" height="602.209" filterUnits="userSpaceOnUse" color-interpolation-filters="sRGB">
<feFlood flood-opacity="0" result="BackgroundImageFix"/>
<feBlend mode="normal" in="SourceGraphic" in2="BackgroundImageFix" result="shape"/>
<feColorMatrix in="SourceAlpha" type="matrix" values="0 0 0 0 0 0 0 0 0 0 0 0 0 0 0 0 0 0 127 0" result="hardAlpha"/>
<feOffset dy="4"/>
<feGaussianBlur stdDeviation="2"/>
<feComposite in2="hardAlpha" operator="arithmetic" k2="-1" k3="1"/>
<feColorMatrix type="matrix" values="0 0 0 0 0 0 0 0 0 0 0 0 0 0 0 0 0 0 0.25 0"/>
<feBlend mode="normal" in2="shape" result="effect1_innerShadow_108_568"/>
</filter>
<filter id="filter5_d_108_568" x="420" y="53" width="171.62" height="171.62" filterUnits="userSpaceOnUse" color-interpolation-filters="sRGB">
<feFlood flood-opacity="0" result="BackgroundImageFix"/>
<feColorMatrix in="SourceAlpha" type="matrix" values="0 0 0 0 0 0 0 0 0 0 0 0 0 0 0 0 0 0 127 0" result="hardAlpha"/>
<feOffset dy="4"/>
<feGaussianBlur stdDeviation="25"/>
<feComposite in2="hardAlpha" operator="out"/>
<feColorMatrix type="matrix" values="0 0 0 0 0 0 0 0 0 0 0 0 0 0 0 0 0 0 0.5 0"/>
<feBlend mode="normal" in2="BackgroundImageFix" result="effect1_dropShadow_108_568"/>
<feBlend mode="normal" in="SourceGraphic" in2="effect1_dropShadow_108_568" result="shape"/>
</filter>
<clipPath id="clip0_108_568">
<rect width="35.8102" height="35.8102" fill="white" transform="translate(552 314)"/>
</clipPath>
<clipPath id="clip1_108_568">
<rect width="35.8102" height="35.8102" fill="white" transform="translate(68 452)"/>
</clipPath>
</defs>
</svg>
