<svg width="12" height="13" viewBox="0 0 12 13" fill="none" xmlns="http://www.w3.org/2000/svg">
<path fill-rule="evenodd" clip-rule="evenodd" d="M6 0.5C6.27614 0.5 6.5 0.723858 6.5 1V10.5C6.5 10.7761 6.27614 11 6 11C5.72386 11 5.5 10.7761 5.5 10.5V1C5.5 0.723858 5.72386 0.5 6 0.5Z" fill="#7B4AE2"/>
<path fill-rule="evenodd" clip-rule="evenodd" d="M1.14645 4.18639C1.34171 3.93787 1.65829 3.93787 1.85355 4.18639L6 9.46368L10.1464 4.18639C10.3417 3.93787 10.6583 3.93787 10.8536 4.18639C11.0488 4.4349 11.0488 4.83783 10.8536 5.08634L6.35355 10.8136C6.15829 11.0621 5.84171 11.0621 5.64645 10.8136L1.14645 5.08634C0.951184 4.83783 0.951184 4.4349 1.14645 4.18639Z" fill="#7B4AE2"/>
<path fill-rule="evenodd" clip-rule="evenodd" d="M0 12.5C0 12.2239 0.223858 12 0.5 12H11.5C11.7761 12 12 12.2239 12 12.5C12 12.7761 11.7761 13 11.5 13H0.5C0.223858 13 0 12.7761 0 12.5Z" fill="#7B4AE2"/>
</svg>
