<svg width="24" height="24" viewBox="0 0 24 24" fill="none" xmlns="http://www.w3.org/2000/svg">
<path d="M4.2565 16.5748C3.13983 14.6908 2.74924 12.464 3.15804 10.3124C3.56684 8.16085 4.74693 6.23248 6.47677 4.88934C8.2066 3.54619 10.3672 2.88063 12.553 3.01761C14.7388 3.1546 16.7994 4.0847 18.348 5.6333C19.8966 7.18191 20.8267 9.24252 20.9637 11.4283C21.1007 13.6141 20.4351 15.7747 19.0919 17.5045C17.7488 19.2343 15.8204 20.4144 13.6689 20.8232C11.5173 21.232 9.29049 20.8414 7.4065 19.7248V19.7248L4.294 20.606C4.16648 20.6433 4.03128 20.6456 3.90256 20.6127C3.77384 20.5798 3.65635 20.5128 3.5624 20.4189C3.46845 20.3249 3.4015 20.2074 3.36858 20.0787C3.33565 19.95 3.33796 19.8148 3.37525 19.6873L4.2565 16.5748Z" stroke="#7B4AE2" stroke-linecap="round" stroke-linejoin="round"/>
<path d="M14.2594 17.25C13.2726 17.2525 12.295 17.0599 11.3828 16.6834C10.4706 16.3069 9.64176 15.7539 8.94395 15.0561C8.24615 14.3583 7.69311 13.5295 7.3166 12.6173C6.9401 11.7051 6.74755 10.7275 6.75002 9.74062C6.7525 9.04605 7.03016 8.38078 7.52217 7.89052C8.01419 7.40027 8.68045 7.12499 9.37502 7.125V7.125C9.48962 7.12408 9.60234 7.15407 9.70133 7.21182C9.80032 7.26956 9.88191 7.35292 9.93752 7.45312L11.0344 9.36562C11.0996 9.48188 11.1331 9.61327 11.1315 9.74657C11.1298 9.87987 11.0931 10.0104 11.025 10.125L10.1438 11.5969C10.5952 12.601 11.399 13.4049 12.4031 13.8562L13.875 12.975C13.9896 12.9069 14.1202 12.8702 14.2535 12.8686C14.3868 12.8669 14.5181 12.9004 14.6344 12.9656L16.5469 14.0625C16.6471 14.1181 16.7305 14.1997 16.7882 14.2987C16.8459 14.3977 16.8759 14.5104 16.875 14.625C16.8726 15.3188 16.5965 15.9837 16.1068 16.4751C15.6171 16.9666 14.9532 17.2451 14.2594 17.25V17.25Z" stroke="#7B4AE2" stroke-linecap="round" stroke-linejoin="round"/>
</svg>
