<svg width="41" height="37" viewBox="0 0 41 37" fill="none" xmlns="http://www.w3.org/2000/svg">
<path d="M33.2073 12.4958C32.7898 12.3521 32.3571 12.2161 31.9116 12.0875C31.9849 11.7887 32.0521 11.4938 32.1118 11.2038C33.0926 6.44295 32.4513 2.60755 30.2616 1.34478C28.1619 0.133943 24.7279 1.39643 21.2599 4.4146C20.9264 4.70482 20.5919 5.0121 20.2577 5.33413C20.0349 5.12107 19.8125 4.91517 19.5907 4.71822C15.9561 1.491 12.3129 0.131006 10.1253 1.39744C8.02759 2.61178 7.40637 6.21742 8.28923 10.7293C8.37448 11.1651 8.47414 11.6102 8.58683 12.0627C8.07122 12.209 7.57344 12.3651 7.09716 12.5311C2.83592 14.0167 0.114502 16.3451 0.114502 18.7603C0.114502 21.2547 3.03595 23.7566 7.47436 25.2736C7.82462 25.3933 8.18807 25.5065 8.56262 25.614C8.44104 26.1034 8.33529 26.5829 8.24653 27.0507C7.40473 31.4843 8.06212 35.0048 10.1542 36.2115C12.3152 37.4576 15.9419 36.1767 19.4734 33.0898C19.7525 32.8457 20.0326 32.587 20.3132 32.3157C20.677 32.666 21.0401 32.9975 21.4014 33.3084C24.822 36.252 28.2005 37.4406 30.2906 36.2306C32.4495 34.9808 33.1511 31.199 32.2402 26.5979C32.1706 26.2464 32.0897 25.8874 31.9988 25.5221C32.2534 25.4468 32.5035 25.369 32.7473 25.2882C37.3614 23.7594 40.3635 21.288 40.3635 18.7603C40.3635 16.3364 37.5544 13.9923 33.2073 12.4958ZM32.2065 23.6561C31.9864 23.729 31.7606 23.7994 31.5305 23.8677C31.0211 22.2551 30.3336 20.5403 29.4923 18.7687C30.2952 17.0392 30.9561 15.3464 31.4512 13.7442C31.8629 13.8633 32.2625 13.989 32.6476 14.1216C36.3722 15.4038 38.6441 17.2996 38.6441 18.7603C38.6441 20.3162 36.1905 22.336 32.2065 23.6561ZM30.5534 26.9318C30.9562 28.9664 31.0137 30.8059 30.7469 32.2439C30.5072 33.536 30.0251 34.3975 29.4291 34.7426C28.1606 35.4768 25.4481 34.5224 22.5227 32.005C22.1874 31.7164 21.8496 31.4083 21.5107 31.0822C22.6448 29.8418 23.7782 28.3999 24.8845 26.7984C26.8302 26.6258 28.6685 26.3435 30.3356 25.9582C30.4177 26.2894 30.4906 26.6142 30.5534 26.9318ZM13.8363 34.6157C12.597 35.0533 11.61 35.0659 11.0134 34.7219C9.74379 33.9896 9.216 31.163 9.93594 27.3714C10.0184 26.9371 10.1165 26.4911 10.2297 26.0352C11.8785 26.3998 13.7033 26.6621 15.6537 26.8202C16.7674 28.3873 17.9336 29.8277 19.1088 31.0888C18.852 31.3367 18.5963 31.5727 18.3419 31.7951C16.7803 33.1601 15.2154 34.1286 13.8363 34.6157ZM8.03045 23.6466C6.06787 22.9758 4.4471 22.104 3.33613 21.1526C2.33786 20.2977 1.83386 19.449 1.83386 18.7603C1.83386 17.2947 4.01889 15.4253 7.66314 14.1547C8.10532 14.0005 8.5682 13.8553 9.04857 13.7188C9.55222 15.3571 10.2129 17.07 11.0102 18.8021C10.2026 20.5599 9.53252 22.3001 9.02392 23.9577C8.68147 23.8592 8.34969 23.7556 8.03045 23.6466ZM9.97663 10.3991C9.22022 6.53343 9.72258 3.61729 10.9867 2.88553C12.3332 2.10598 15.3108 3.21745 18.449 6.00399C18.6496 6.1821 18.851 6.36851 19.053 6.56137C17.8836 7.81706 16.728 9.24662 15.6242 10.8044C13.7313 10.9799 11.9193 11.2617 10.2533 11.6391C10.1486 11.2178 10.0558 10.8038 9.97663 10.3991ZM27.3382 14.6862C26.94 13.9983 26.5311 13.3266 26.1143 12.6733C27.3985 12.8356 28.6289 13.0511 29.7843 13.3149C29.4375 14.4266 29.0051 15.589 28.4961 16.7806C28.131 16.0875 27.7449 15.3886 27.3382 14.6862ZM20.2582 7.79019C21.0513 8.6494 21.8455 9.6087 22.6267 10.6495C21.8395 10.6123 21.0426 10.593 20.239 10.593C19.4431 10.593 18.652 10.6119 17.8697 10.6485C18.6516 9.6173 19.4527 8.65929 20.2582 7.79019ZM13.1329 14.6981C12.735 15.3879 12.356 16.083 11.9967 16.7794C11.496 15.5919 11.0676 14.4242 10.7177 13.2967C11.8661 13.0397 13.0907 12.8295 14.3667 12.6703C13.944 13.3296 13.5318 14.0062 13.1329 14.6979V14.6981ZM14.4034 24.9729C13.0851 24.8258 11.8421 24.6265 10.694 24.3766C11.0495 23.229 11.4873 22.0364 11.9986 20.8233C12.3589 21.5192 12.7394 22.2145 13.1397 22.9059H13.1397C13.5474 23.6102 13.9699 24.3001 14.4034 24.9729ZM20.3058 29.8516C19.4909 28.9723 18.678 27.9997 17.8841 26.9535C18.6548 26.9837 19.4405 26.9992 20.239 26.9992C21.0594 26.9992 21.8704 26.9807 22.6686 26.9452C21.8849 28.0102 21.0935 28.9843 20.3058 29.8516ZM28.5125 20.7615C29.0505 21.9876 29.504 23.174 29.8641 24.3021C28.6971 24.5684 27.4371 24.7828 26.1096 24.9421C26.5274 24.28 26.9398 23.5968 27.3451 22.8941C27.7551 22.1831 28.1444 21.471 28.5125 20.7615ZM25.8557 22.0351C25.2266 23.126 24.5806 24.1674 23.9249 25.1504C22.7305 25.2358 21.4966 25.2798 20.239 25.2798C18.9865 25.2798 17.7681 25.2409 16.5949 25.1647C15.9127 24.1688 15.2528 23.1243 14.6276 22.0445H14.6277C14.0042 20.9675 13.4304 19.8815 12.9104 18.8015C13.4302 17.7191 14.0026 16.6318 14.6225 15.5568L14.6224 15.5571C15.2439 14.4792 15.8981 13.4398 16.574 12.4501C17.771 12.3596 18.9985 12.3124 20.239 12.3124H20.239C21.4851 12.3124 22.7141 12.36 23.9108 12.4513C24.5763 13.4337 25.2261 14.4697 25.8501 15.5477C26.4812 16.6379 27.0609 17.7179 27.5852 18.7771C27.0625 19.8545 26.4841 20.9455 25.8557 22.0351ZM29.4027 2.83437C30.7505 3.61163 31.2747 6.74628 30.4278 10.8568C30.3738 11.1191 30.313 11.3862 30.2469 11.657C28.5771 11.2717 26.7638 10.985 24.8654 10.8069C23.7594 9.23193 22.6133 7.80015 21.463 6.56059C21.7723 6.26305 22.0811 5.97935 22.3887 5.71162C25.3601 3.12567 28.1374 2.10469 29.4027 2.83437ZM20.239 15.1662C22.224 15.1662 23.8331 16.7753 23.8331 18.7603C23.8331 20.7452 22.224 22.3544 20.239 22.3544C18.2541 22.3544 16.6449 20.7452 16.6449 18.7603C16.6449 16.7753 18.2541 15.1662 20.239 15.1662Z" fill="#7B4AE2" fill-opacity="0.5"/>
</svg>
