<svg width="172" height="172" viewBox="0 0 172 172" fill="none" xmlns="http://www.w3.org/2000/svg">
<g filter="url(#filter0_d_108_571)">
<circle cx="86.1435" cy="82.1103" r="35.8102" fill="#090E16"/>
</g>
<g clip-path="url(#clip0_108_571)">
<path fill-rule="evenodd" clip-rule="evenodd" d="M101.251 64.2052H71.036C69.4908 64.2052 68.2383 65.4577 68.2383 67.0028V97.2177C68.2383 98.7628 69.4908 100.015 71.036 100.015H101.251C102.796 100.015 104.049 98.7628 104.049 97.2177V67.0028C104.049 65.4577 102.796 64.2052 101.251 64.2052ZM89.2933 96.1119V92.2483C89.9941 92.836 90.7554 93.2766 91.5772 93.5704C92.3989 93.8643 93.2285 94.0112 94.0663 94.0112C94.5577 94.0112 94.9867 93.9668 95.3532 93.8783C95.7197 93.7897 96.0259 93.667 96.2715 93.5101C96.5172 93.3531 96.7006 93.1679 96.8213 92.9548C96.9421 92.7414 97.0026 92.5099 97.0026 92.2605C97.0026 91.9224 96.9059 91.6205 96.7126 91.3549C96.5193 91.0893 96.2554 90.8438 95.9211 90.6184C95.5868 90.3931 95.1901 90.1758 94.7309 89.9666C94.2718 89.7572 93.7763 89.544 93.2446 89.3266C91.8912 88.7631 90.8824 88.0749 90.2178 87.262C89.5531 86.449 89.2208 85.4671 89.2208 84.3161C89.2208 83.4145 89.4021 82.6399 89.7646 81.9919C90.1271 81.344 90.6205 80.8108 91.2448 80.3921C91.8691 79.9736 92.5922 79.6657 93.4138 79.4686C94.2355 79.2713 95.1055 79.1727 96.0238 79.1727C96.926 79.1727 97.7256 79.227 98.4224 79.3357C99.1191 79.4444 99.7616 79.6114 100.35 79.8367V83.4467C100.06 83.2456 99.7434 83.0685 99.4011 82.9156C99.0587 82.7626 98.7063 82.6358 98.3439 82.5352C97.9813 82.4345 97.6208 82.3601 97.2623 82.3118C96.9039 82.2636 96.5636 82.2394 96.2413 82.2394C95.7983 82.2394 95.3954 82.2816 95.033 82.3661C94.6704 82.4507 94.3644 82.5694 94.1147 82.7224C93.865 82.8753 93.6715 83.0584 93.5346 83.2717C93.3976 83.485 93.3292 83.7244 93.3292 83.99C93.3292 84.2799 93.4057 84.5394 93.5588 84.7688C93.7118 84.9982 93.9293 85.2156 94.2113 85.4208C94.4932 85.6261 94.8356 85.8273 95.2384 86.0245C95.6412 86.2217 96.0963 86.4248 96.6038 86.6343C97.2966 86.924 97.9189 87.2318 98.4708 87.5578C99.0225 87.8838 99.4958 88.252 99.8905 88.6626C100.285 89.073 100.587 89.5419 100.797 90.0691C101.006 90.5963 101.111 91.2101 101.111 91.9104C101.111 92.8763 100.928 93.6872 100.561 94.3431C100.195 94.9992 99.6971 95.5304 99.0688 95.9369C98.4406 96.3433 97.7094 96.6351 96.8757 96.8122C96.042 96.9893 95.1618 97.0778 94.2355 97.0778C93.2849 97.0778 92.3807 96.9974 91.5228 96.8364C90.6649 96.6754 89.9217 96.4339 89.2933 96.1119ZM87.822 82.6337H82.8536V96.7981H78.9177V82.6337H73.9735V79.4525H87.822V82.6337Z" fill="#7B4AE2" fill-opacity="0.5"/>
</g>
<defs>
<filter id="filter0_d_108_571" x="0.333252" y="0.300049" width="171.62" height="171.62" filterUnits="userSpaceOnUse" color-interpolation-filters="sRGB">
<feFlood flood-opacity="0" result="BackgroundImageFix"/>
<feColorMatrix in="SourceAlpha" type="matrix" values="0 0 0 0 0 0 0 0 0 0 0 0 0 0 0 0 0 0 127 0" result="hardAlpha"/>
<feOffset dy="4"/>
<feGaussianBlur stdDeviation="25"/>
<feComposite in2="hardAlpha" operator="out"/>
<feColorMatrix type="matrix" values="0 0 0 0 0 0 0 0 0 0 0 0 0 0 0 0 0 0 0.5 0"/>
<feBlend mode="normal" in2="BackgroundImageFix" result="effect1_dropShadow_108_571"/>
<feBlend mode="normal" in="SourceGraphic" in2="effect1_dropShadow_108_571" result="shape"/>
</filter>
<clipPath id="clip0_108_571">
<rect width="35.8102" height="35.8102" fill="white" transform="translate(68.2383 64.2052)"/>
</clipPath>
</defs>
</svg>
