<svg width="34" height="33" viewBox="0 0 34 33" fill="none" xmlns="http://www.w3.org/2000/svg">
<path fill-rule="evenodd" clip-rule="evenodd" d="M16.7382 0.333344C7.6746 0.333344 0.333496 7.67445 0.333496 16.738C0.333496 23.9971 5.02934 30.1284 11.5502 32.302C12.3704 32.4455 12.678 31.9534 12.678 31.5228C12.678 31.1332 12.6575 29.8413 12.6575 28.4674C8.53585 29.2261 7.46954 27.4626 7.14145 26.5399C6.95689 26.0682 6.15717 24.6123 5.45997 24.2227C4.8858 23.9151 4.06557 23.1564 5.43946 23.1359C6.73133 23.1154 7.65409 24.3252 7.96168 24.8174C9.43811 27.2986 11.7963 26.6014 12.7396 26.1707C12.8831 25.1044 13.3137 24.3867 13.7854 23.9766C10.1353 23.5665 6.32121 22.1516 6.32121 15.8768C6.32121 14.0928 6.95689 12.6164 8.00269 11.468C7.83865 11.0579 7.26448 9.37643 8.16674 7.12079C8.16674 7.12079 9.54063 6.69017 12.678 8.80227C13.9904 8.43316 15.3848 8.24861 16.7792 8.24861C18.1736 8.24861 19.568 8.43316 20.8804 8.80227C24.0178 6.66966 25.3917 7.12079 25.3917 7.12079C26.2939 9.37643 25.7198 11.0579 25.5557 11.468C26.6015 12.6164 27.2372 14.0723 27.2372 15.8768C27.2372 22.1721 23.4026 23.5665 19.7526 23.9766C20.3472 24.4893 20.8599 25.4735 20.8599 27.0115C20.8599 29.2056 20.8394 30.9691 20.8394 31.5228C20.8394 31.9534 21.147 32.4661 21.9672 32.302C28.4471 30.1284 33.1429 23.9766 33.1429 16.738C33.1429 7.67445 25.8018 0.333344 16.7382 0.333344Z" fill="white" fill-opacity="0.5"/>
</svg>
