<svg width="32" height="32" viewBox="0 0 32 32" fill="none" xmlns="http://www.w3.org/2000/svg">
<rect opacity="0.99" width="32" height="32" rx="16" fill="#84878B"/>
<path d="M5.27926 15.284C12.3488 12.1739 21.4973 8.38213 22.7601 7.85731C26.0726 6.48369 27.0891 6.74694 26.5823 9.78894C26.2183 11.9754 25.1681 19.2142 24.3311 23.7198C23.8344 26.3917 22.7201 26.7084 20.9679 25.5524C20.1253 24.9961 15.8723 22.1836 14.9492 21.5233C14.1066 20.9214 12.9444 20.1974 14.4019 18.7715C14.9205 18.2636 18.3203 15.0174 20.9691 12.4906C21.3161 12.1587 20.8802 11.6137 20.4797 11.8797C16.9095 14.2473 11.9595 17.5334 11.3295 17.9615C10.3778 18.6078 9.4637 18.9043 7.82288 18.4329C6.58314 18.0768 5.37207 17.6521 4.9007 17.4901C3.08551 16.8669 3.51639 16.0597 5.27926 15.284Z" fill="#090E16"/>
</svg>
